<mxfile host="app.diagrams.net" modified="2022-02-15T07:53:34.871Z" agent="5.0 (Windows NT 10.0; Win64; x64) AppleWebKit/537.36 (KHTML, like Gecko) Chrome/95.0.4638.54 Safari/537.36" etag="edwSXdu9pAaSYK4WbPtb" version="16.5.6" type="github">
  <diagram id="f_m_f8tIVZLu3XDVxjNI" name="第 1 页">
    <mxGraphModel dx="1411" dy="1188" grid="1" gridSize="10" guides="1" tooltips="1" connect="1" arrows="1" fold="1" page="1" pageScale="1" pageWidth="827" pageHeight="1169" math="0" shadow="0">
      <root>
        <mxCell id="0" />
        <mxCell id="1" parent="0" />
        <mxCell id="Gu_HGvraQtIG8CotYRPx-56" style="edgeStyle=none;rounded=0;orthogonalLoop=1;jettySize=auto;html=1;fontColor=#66B2FF;" edge="1" parent="1" source="Gu_HGvraQtIG8CotYRPx-2" target="Gu_HGvraQtIG8CotYRPx-57">
          <mxGeometry relative="1" as="geometry">
            <mxPoint x="3220" y="730" as="targetPoint" />
          </mxGeometry>
        </mxCell>
        <mxCell id="Gu_HGvraQtIG8CotYRPx-2" value="&lt;font style=&quot;font-size: 28px&quot;&gt;Ringing&lt;/font&gt;" style="ellipse;whiteSpace=wrap;html=1;rounded=1;labelBackgroundColor=none;fontSize=20;fillColor=#66B2FF;gradientColor=none;fontColor=#FFFFFF;fontStyle=1;strokeColor=none;" vertex="1" parent="1">
          <mxGeometry x="2760" y="700" width="240" height="80" as="geometry" />
        </mxCell>
        <mxCell id="Gu_HGvraQtIG8CotYRPx-5" value="&lt;font style=&quot;font-size: 28px&quot;&gt;Active&lt;/font&gt;" style="ellipse;whiteSpace=wrap;html=1;rounded=1;labelBackgroundColor=none;fontSize=20;fillColor=#66B2FF;gradientColor=none;fontColor=#FFFFFF;fontStyle=1;strokeColor=none;" vertex="1" parent="1">
          <mxGeometry x="2520" y="1160" width="240" height="80" as="geometry" />
        </mxCell>
        <mxCell id="Gu_HGvraQtIG8CotYRPx-6" value="&lt;span style=&quot;font-size: 28px&quot;&gt;Hangup&lt;/span&gt;" style="ellipse;whiteSpace=wrap;html=1;rounded=1;labelBackgroundColor=none;fontSize=20;fillColor=#66B2FF;gradientColor=none;fontColor=#FFFFFF;fontStyle=1;strokeColor=none;" vertex="1" parent="1">
          <mxGeometry x="2520" y="1560" width="240" height="80" as="geometry" />
        </mxCell>
        <mxCell id="Gu_HGvraQtIG8CotYRPx-7" value="" style="endArrow=classic;html=1;rounded=0;fontSize=20;fontColor=#0000FF;exitX=0.5;exitY=1;exitDx=0;exitDy=0;entryX=0.5;entryY=0;entryDx=0;entryDy=0;" edge="1" parent="1" source="Gu_HGvraQtIG8CotYRPx-5" target="Gu_HGvraQtIG8CotYRPx-6">
          <mxGeometry width="50" height="50" relative="1" as="geometry">
            <mxPoint x="2920" y="1270" as="sourcePoint" />
            <mxPoint x="2970" y="1220" as="targetPoint" />
          </mxGeometry>
        </mxCell>
        <mxCell id="Gu_HGvraQtIG8CotYRPx-8" value="&lt;div style=&quot;font-family: &amp;#34;consolas&amp;#34; , &amp;#34;courier new&amp;#34; , monospace ; line-height: 19px ; font-size: 20px&quot;&gt;HANGUP&lt;br&gt;&lt;div style=&quot;line-height: 19px&quot;&gt;&lt;font color=&quot;#0000ff&quot;&gt;onChannelHangup&lt;/font&gt;&lt;/div&gt;&lt;/div&gt;" style="rounded=0;whiteSpace=wrap;html=1;labelBackgroundColor=none;fontSize=20;fontColor=#FF8000;fillColor=#FFFFFF;gradientColor=none;strokeColor=none;" vertex="1" parent="1">
          <mxGeometry x="2520" y="1360" width="240" height="80" as="geometry" />
        </mxCell>
        <mxCell id="Gu_HGvraQtIG8CotYRPx-52" style="rounded=0;orthogonalLoop=1;jettySize=auto;html=1;fontColor=#66B2FF;" edge="1" parent="1" source="Gu_HGvraQtIG8CotYRPx-9" target="Gu_HGvraQtIG8CotYRPx-2">
          <mxGeometry relative="1" as="geometry" />
        </mxCell>
        <mxCell id="Gu_HGvraQtIG8CotYRPx-54" style="rounded=0;orthogonalLoop=1;jettySize=auto;html=1;entryX=0.5;entryY=0;entryDx=0;entryDy=0;fontColor=#66B2FF;" edge="1" parent="1" source="Gu_HGvraQtIG8CotYRPx-9" target="Gu_HGvraQtIG8CotYRPx-53">
          <mxGeometry relative="1" as="geometry" />
        </mxCell>
        <mxCell id="Gu_HGvraQtIG8CotYRPx-9" value="&lt;font style=&quot;font-size: 28px&quot;&gt;Start&lt;/font&gt;" style="ellipse;whiteSpace=wrap;html=1;rounded=1;labelBackgroundColor=none;fontSize=20;fillColor=#66B2FF;gradientColor=none;fontColor=#FFFFFF;fontStyle=1;strokeColor=none;" vertex="1" parent="1">
          <mxGeometry x="2520" y="340" width="240" height="80" as="geometry" />
        </mxCell>
        <mxCell id="Gu_HGvraQtIG8CotYRPx-10" value="&lt;font style=&quot;font-size: 28px&quot;&gt;Held&lt;/font&gt;" style="ellipse;whiteSpace=wrap;html=1;rounded=1;labelBackgroundColor=none;fontSize=20;fillColor=#66B2FF;gradientColor=none;fontColor=#FFFFFF;fontStyle=1;strokeColor=none;" vertex="1" parent="1">
          <mxGeometry x="3080" y="1160" width="240" height="80" as="geometry" />
        </mxCell>
        <mxCell id="Gu_HGvraQtIG8CotYRPx-11" value="&lt;span style=&quot;font-size: 28px&quot;&gt;Unheld&lt;/span&gt;" style="ellipse;whiteSpace=wrap;html=1;rounded=1;labelBackgroundColor=none;fontSize=20;fillColor=#66B2FF;gradientColor=none;fontColor=#FFFFFF;fontStyle=1;strokeColor=none;" vertex="1" parent="1">
          <mxGeometry x="3080" y="1560" width="240" height="80" as="geometry" />
        </mxCell>
        <mxCell id="Gu_HGvraQtIG8CotYRPx-12" value="" style="endArrow=classic;html=1;rounded=0;fontSize=20;fontColor=#FF8000;entryX=0.5;entryY=0;entryDx=0;entryDy=0;exitX=0.5;exitY=1;exitDx=0;exitDy=0;" edge="1" parent="1" source="Gu_HGvraQtIG8CotYRPx-10" target="Gu_HGvraQtIG8CotYRPx-11">
          <mxGeometry width="50" height="50" relative="1" as="geometry">
            <mxPoint x="3420" y="1340" as="sourcePoint" />
            <mxPoint x="3490" y="1270" as="targetPoint" />
          </mxGeometry>
        </mxCell>
        <mxCell id="Gu_HGvraQtIG8CotYRPx-13" value="&lt;span style=&quot;font-size: 28px&quot;&gt;End&lt;/span&gt;" style="ellipse;whiteSpace=wrap;html=1;rounded=1;labelBackgroundColor=none;fontSize=20;fillColor=#66B2FF;gradientColor=none;fontColor=#FFFFFF;fontStyle=1;strokeColor=none;" vertex="1" parent="1">
          <mxGeometry x="2520" y="1800" width="240" height="80" as="geometry" />
        </mxCell>
        <mxCell id="Gu_HGvraQtIG8CotYRPx-14" value="" style="endArrow=classic;html=1;rounded=0;fontSize=20;fontColor=#FF8000;exitX=0.5;exitY=1;exitDx=0;exitDy=0;entryX=0.5;entryY=0;entryDx=0;entryDy=0;" edge="1" parent="1" source="Gu_HGvraQtIG8CotYRPx-6" target="Gu_HGvraQtIG8CotYRPx-13">
          <mxGeometry width="50" height="50" relative="1" as="geometry">
            <mxPoint x="2760" y="1580" as="sourcePoint" />
            <mxPoint x="2810" y="1530" as="targetPoint" />
          </mxGeometry>
        </mxCell>
        <mxCell id="Gu_HGvraQtIG8CotYRPx-15" value="&lt;font style=&quot;font-size: 28px&quot;&gt;RingWait&lt;/font&gt;" style="ellipse;whiteSpace=wrap;html=1;rounded=1;labelBackgroundColor=none;fontSize=20;fillColor=#66B2FF;gradientColor=none;fontColor=#FFFFFF;fontStyle=1;strokeColor=none;" vertex="1" parent="1">
          <mxGeometry x="1960" y="1160" width="240" height="80" as="geometry" />
        </mxCell>
        <mxCell id="Gu_HGvraQtIG8CotYRPx-16" value="" style="endArrow=classic;html=1;rounded=0;fontSize=20;fontColor=#FF8000;entryX=0;entryY=0.5;entryDx=0;entryDy=0;exitX=0.5;exitY=1;exitDx=0;exitDy=0;" edge="1" parent="1" source="Gu_HGvraQtIG8CotYRPx-15" target="Gu_HGvraQtIG8CotYRPx-6">
          <mxGeometry width="50" height="50" relative="1" as="geometry">
            <mxPoint x="2070" y="1370" as="sourcePoint" />
            <mxPoint x="2250" y="1390" as="targetPoint" />
          </mxGeometry>
        </mxCell>
        <mxCell id="Gu_HGvraQtIG8CotYRPx-19" value="&lt;font style=&quot;font-size: 20px;&quot;&gt;H&lt;/font&gt;" style="ellipse;whiteSpace=wrap;html=1;aspect=fixed;rounded=1;labelBackgroundColor=none;fontSize=20;fontColor=#000000;strokeColor=default;fillColor=#FFFFFF;gradientColor=none;" vertex="1" parent="1">
          <mxGeometry x="2760" y="1480" width="40" height="40" as="geometry" />
        </mxCell>
        <mxCell id="Gu_HGvraQtIG8CotYRPx-20" value="" style="endArrow=classic;html=1;rounded=0;fontSize=20;fontColor=#0000FF;exitX=0;exitY=1;exitDx=0;exitDy=0;entryX=1;entryY=0;entryDx=0;entryDy=0;" edge="1" parent="1" source="Gu_HGvraQtIG8CotYRPx-19" target="Gu_HGvraQtIG8CotYRPx-6">
          <mxGeometry width="50" height="50" relative="1" as="geometry">
            <mxPoint x="2390" y="1500" as="sourcePoint" />
            <mxPoint x="2440" y="1450" as="targetPoint" />
          </mxGeometry>
        </mxCell>
        <mxCell id="Gu_HGvraQtIG8CotYRPx-21" value="" style="endArrow=classic;html=1;rounded=0;fontSize=20;fontColor=#0000FF;exitX=0;exitY=0;exitDx=0;exitDy=0;entryX=1;entryY=1;entryDx=0;entryDy=0;" edge="1" parent="1" source="Gu_HGvraQtIG8CotYRPx-11" target="Gu_HGvraQtIG8CotYRPx-5">
          <mxGeometry width="50" height="50" relative="1" as="geometry">
            <mxPoint x="2780" y="1350" as="sourcePoint" />
            <mxPoint x="2760" y="1300" as="targetPoint" />
          </mxGeometry>
        </mxCell>
        <mxCell id="Gu_HGvraQtIG8CotYRPx-22" value="" style="endArrow=classic;html=1;rounded=0;fontSize=20;fontColor=#0000FF;entryX=1;entryY=0.5;entryDx=0;entryDy=0;exitX=0;exitY=0.5;exitDx=0;exitDy=0;" edge="1" parent="1" source="Gu_HGvraQtIG8CotYRPx-11" target="Gu_HGvraQtIG8CotYRPx-6">
          <mxGeometry width="50" height="50" relative="1" as="geometry">
            <mxPoint x="3050" y="1680" as="sourcePoint" />
            <mxPoint x="3100" y="1630" as="targetPoint" />
          </mxGeometry>
        </mxCell>
        <mxCell id="Gu_HGvraQtIG8CotYRPx-23" value="" style="curved=1;endArrow=classic;html=1;rounded=0;fontSize=20;fontColor=#0000FF;exitX=1;exitY=1;exitDx=0;exitDy=0;entryX=0;entryY=1;entryDx=0;entryDy=0;" edge="1" parent="1" source="Gu_HGvraQtIG8CotYRPx-15" target="Gu_HGvraQtIG8CotYRPx-5">
          <mxGeometry width="50" height="50" relative="1" as="geometry">
            <mxPoint x="2260" y="1350" as="sourcePoint" />
            <mxPoint x="2310" y="1300" as="targetPoint" />
            <Array as="points">
              <mxPoint x="2200" y="1280" />
              <mxPoint x="2520" y="1280" />
            </Array>
          </mxGeometry>
        </mxCell>
        <mxCell id="Gu_HGvraQtIG8CotYRPx-24" value="&lt;span style=&quot;font-family: &amp;#34;consolas&amp;#34; , &amp;#34;courier new&amp;#34; , monospace&quot;&gt;HANGUP&lt;/span&gt;&lt;span style=&quot;font-family: &amp;#34;consolas&amp;#34; , &amp;#34;courier new&amp;#34; , monospace&quot;&gt;&lt;br&gt;&lt;/span&gt;&lt;div style=&quot;font-family: &amp;#34;consolas&amp;#34; , &amp;#34;courier new&amp;#34; , monospace ; line-height: 19px ; font-size: 20px&quot;&gt;&lt;font style=&quot;font-size: 20px&quot; color=&quot;#0000ff&quot;&gt;onChannelHangup&lt;/font&gt;&lt;/div&gt;" style="rounded=0;whiteSpace=wrap;html=1;labelBackgroundColor=none;fontSize=20;fontColor=#FF8000;fillColor=#FFFFFF;gradientColor=none;strokeColor=none;" vertex="1" parent="1">
          <mxGeometry x="3030" y="640" width="240" height="80" as="geometry" />
        </mxCell>
        <mxCell id="Gu_HGvraQtIG8CotYRPx-27" value="&lt;span style=&quot;font-family: &amp;#34;consolas&amp;#34; , &amp;#34;courier new&amp;#34; , monospace&quot;&gt;ACTIVE&lt;/span&gt;&lt;span style=&quot;font-family: &amp;#34;consolas&amp;#34; , &amp;#34;courier new&amp;#34; , monospace&quot;&gt;&lt;br&gt;&lt;/span&gt;&lt;span style=&quot;color: rgb(0 , 0 , 255) ; font-family: &amp;#34;consolas&amp;#34; , &amp;#34;courier new&amp;#34; , monospace&quot;&gt;onChannel&lt;/span&gt;&lt;span style=&quot;color: rgb(0 , 0 , 255) ; font-family: &amp;#34;consolas&amp;#34; , &amp;#34;courier new&amp;#34; , monospace&quot;&gt;Active&lt;/span&gt;&lt;span style=&quot;color: rgb(0 , 0 , 255) ; font-family: &amp;#34;consolas&amp;#34; , &amp;#34;courier new&amp;#34; , monospace&quot;&gt;&lt;br&gt;&lt;/span&gt;" style="rounded=0;whiteSpace=wrap;html=1;labelBackgroundColor=none;fontSize=20;fontColor=#FF8000;fillColor=#FFFFFF;gradientColor=none;strokeColor=none;" vertex="1" parent="1">
          <mxGeometry x="2240" y="1240" width="240" height="80" as="geometry" />
        </mxCell>
        <mxCell id="Gu_HGvraQtIG8CotYRPx-28" value="" style="curved=1;endArrow=classic;html=1;rounded=0;exitX=0;exitY=0;exitDx=0;exitDy=0;entryX=1;entryY=0;entryDx=0;entryDy=0;" edge="1" parent="1" source="Gu_HGvraQtIG8CotYRPx-5" target="Gu_HGvraQtIG8CotYRPx-15">
          <mxGeometry width="50" height="50" relative="1" as="geometry">
            <mxPoint x="2560" y="1070" as="sourcePoint" />
            <mxPoint x="2310" y="1000" as="targetPoint" />
            <Array as="points">
              <mxPoint x="2520" y="1120" />
              <mxPoint x="2200" y="1120" />
            </Array>
          </mxGeometry>
        </mxCell>
        <mxCell id="Gu_HGvraQtIG8CotYRPx-29" value="&lt;div style=&quot;font-family: &amp;#34;consolas&amp;#34; , &amp;#34;courier new&amp;#34; , monospace ; line-height: 19px ; font-size: 20px&quot;&gt;RING_WAIT&lt;br&gt;&lt;div style=&quot;line-height: 19px&quot;&gt;&lt;font color=&quot;#0000ff&quot;&gt;onChannelRingWait&lt;/font&gt;&lt;/div&gt;&lt;/div&gt;" style="rounded=0;whiteSpace=wrap;html=1;labelBackgroundColor=none;fontSize=20;fontColor=#FF8000;fillColor=#FFFFFF;gradientColor=none;strokeColor=none;" vertex="1" parent="1">
          <mxGeometry x="2240" y="1080" width="240" height="80" as="geometry" />
        </mxCell>
        <mxCell id="Gu_HGvraQtIG8CotYRPx-30" value="" style="endArrow=classic;html=1;rounded=0;exitX=1;exitY=0.5;exitDx=0;exitDy=0;entryX=0;entryY=0.5;entryDx=0;entryDy=0;" edge="1" parent="1" source="Gu_HGvraQtIG8CotYRPx-5" target="Gu_HGvraQtIG8CotYRPx-10">
          <mxGeometry width="50" height="50" relative="1" as="geometry">
            <mxPoint x="3000" y="1080" as="sourcePoint" />
            <mxPoint x="3050" y="1030" as="targetPoint" />
          </mxGeometry>
        </mxCell>
        <mxCell id="Gu_HGvraQtIG8CotYRPx-31" value="&lt;div style=&quot;font-family: &amp;#34;consolas&amp;#34; , &amp;#34;courier new&amp;#34; , monospace ; line-height: 19px ; font-size: 20px&quot;&gt;HELD&lt;br&gt;&lt;div style=&quot;line-height: 19px&quot;&gt;&lt;font color=&quot;#0000ff&quot;&gt;onChannelHeld&lt;/font&gt;&lt;/div&gt;&lt;/div&gt;" style="rounded=0;whiteSpace=wrap;html=1;labelBackgroundColor=none;fontSize=20;fontColor=#FF8000;fillColor=#FFFFFF;gradientColor=none;strokeColor=none;" vertex="1" parent="1">
          <mxGeometry x="2800" y="1160" width="240" height="80" as="geometry" />
        </mxCell>
        <mxCell id="Gu_HGvraQtIG8CotYRPx-32" value="&lt;div style=&quot;font-family: &amp;#34;consolas&amp;#34; , &amp;#34;courier new&amp;#34; , monospace ; line-height: 19px ; font-size: 20px&quot;&gt;UNHELD&lt;br&gt;&lt;div style=&quot;line-height: 19px&quot;&gt;&lt;font color=&quot;#0000ff&quot;&gt;onChannelUnheld&lt;/font&gt;&lt;/div&gt;&lt;/div&gt;" style="rounded=0;whiteSpace=wrap;html=1;labelBackgroundColor=none;fontSize=20;fontColor=#FF8000;fillColor=#FFFFFF;gradientColor=none;strokeColor=none;" vertex="1" parent="1">
          <mxGeometry x="3080" y="1280" width="240" height="80" as="geometry" />
        </mxCell>
        <mxCell id="Gu_HGvraQtIG8CotYRPx-33" value="&lt;span style=&quot;font-family: &amp;#34;consolas&amp;#34; , &amp;#34;courier new&amp;#34; , monospace&quot;&gt;ACTIVE&lt;/span&gt;&lt;span style=&quot;font-family: &amp;#34;consolas&amp;#34; , &amp;#34;courier new&amp;#34; , monospace&quot;&gt;&lt;br&gt;&lt;/span&gt;&lt;span style=&quot;color: rgb(0 , 0 , 255) ; font-family: &amp;#34;consolas&amp;#34; , &amp;#34;courier new&amp;#34; , monospace&quot;&gt;onChannel&lt;/span&gt;&lt;span style=&quot;color: rgb(0 , 0 , 255) ; font-family: &amp;#34;consolas&amp;#34; , &amp;#34;courier new&amp;#34; , monospace&quot;&gt;Active&lt;/span&gt;&lt;span style=&quot;color: rgb(0 , 0 , 255) ; font-family: &amp;#34;consolas&amp;#34; , &amp;#34;courier new&amp;#34; , monospace&quot;&gt;&lt;br&gt;&lt;/span&gt;" style="rounded=0;whiteSpace=wrap;html=1;labelBackgroundColor=none;fontSize=20;fontColor=#FF8000;fillColor=#FFFFFF;gradientColor=none;strokeColor=none;" vertex="1" parent="1">
          <mxGeometry x="2880" y="1440" width="240" height="80" as="geometry" />
        </mxCell>
        <mxCell id="Gu_HGvraQtIG8CotYRPx-34" value="&lt;div style=&quot;font-family: &amp;#34;consolas&amp;#34; , &amp;#34;courier new&amp;#34; , monospace ; line-height: 19px ; font-size: 20px&quot;&gt;HANGUP_COMPLETE&lt;br&gt;&lt;div style=&quot;line-height: 19px&quot;&gt;&lt;font color=&quot;#0000ff&quot;&gt;onChannelEnd&lt;/font&gt;&lt;/div&gt;&lt;/div&gt;" style="rounded=0;whiteSpace=wrap;html=1;labelBackgroundColor=none;fontSize=20;fontColor=#FF8000;fillColor=#FFFFFF;gradientColor=none;strokeColor=none;" vertex="1" parent="1">
          <mxGeometry x="2440" y="1680" width="400" height="80" as="geometry" />
        </mxCell>
        <mxCell id="Gu_HGvraQtIG8CotYRPx-35" value="&lt;div style=&quot;font-family: &amp;#34;consolas&amp;#34; , &amp;#34;courier new&amp;#34; , monospace ; line-height: 19px ; font-size: 20px&quot;&gt;HANGUP&lt;br&gt;&lt;div style=&quot;line-height: 19px&quot;&gt;&lt;font color=&quot;#0000ff&quot;&gt;onChannelHangup&lt;/font&gt;&lt;/div&gt;&lt;/div&gt;" style="rounded=0;whiteSpace=wrap;html=1;labelBackgroundColor=none;fontSize=20;fontColor=#FF8000;fillColor=#FFFFFF;gradientColor=none;strokeColor=none;" vertex="1" parent="1">
          <mxGeometry x="2800" y="1560" width="240" height="80" as="geometry" />
        </mxCell>
        <mxCell id="Gu_HGvraQtIG8CotYRPx-36" value="&lt;div style=&quot;font-family: &amp;#34;consolas&amp;#34; , &amp;#34;courier new&amp;#34; , monospace ; line-height: 19px ; font-size: 20px&quot;&gt;HANGUP&lt;br&gt;&lt;div style=&quot;line-height: 19px&quot;&gt;&lt;font color=&quot;#0000ff&quot;&gt;onChannelHangup&lt;/font&gt;&lt;/div&gt;&lt;/div&gt;" style="rounded=0;whiteSpace=wrap;html=1;labelBackgroundColor=none;fontSize=20;fontColor=#FF8000;fillColor=#FFFFFF;gradientColor=none;strokeColor=none;" vertex="1" parent="1">
          <mxGeometry x="2120" y="1360" width="240" height="80" as="geometry" />
        </mxCell>
        <mxCell id="Gu_HGvraQtIG8CotYRPx-37" style="edgeStyle=none;curved=1;rounded=0;orthogonalLoop=1;jettySize=auto;html=1;endArrow=classic;startSize=6;endSize=6;sourcePerimeterSpacing=8;targetPerimeterSpacing=8;endFill=1;exitX=0.5;exitY=1;exitDx=0;exitDy=0;entryX=0.703;entryY=0.018;entryDx=0;entryDy=0;entryPerimeter=0;" edge="1" parent="1" source="Gu_HGvraQtIG8CotYRPx-2" target="Gu_HGvraQtIG8CotYRPx-5">
          <mxGeometry relative="1" as="geometry">
            <mxPoint x="2640" y="928" as="sourcePoint" />
          </mxGeometry>
        </mxCell>
        <mxCell id="Gu_HGvraQtIG8CotYRPx-45" value="&lt;h1 style=&quot;font-size: 28px&quot;&gt;&lt;font style=&quot;font-size: 28px&quot;&gt;&lt;br&gt;&lt;/font&gt;&lt;/h1&gt;&lt;p style=&quot;font-size: 28px&quot;&gt;&lt;font style=&quot;font-size: 28px&quot;&gt;&lt;b&gt;&lt;i&gt;legend:&lt;/i&gt;&lt;/b&gt;&lt;/font&gt;&lt;/p&gt;&lt;p style=&quot;font-size: 28px&quot;&gt;&lt;font color=&quot;#ff00ff&quot; style=&quot;font-size: 28px&quot;&gt;&lt;b&gt;xxxx Function call by APP&lt;/b&gt;&lt;/font&gt;&lt;/p&gt;&lt;p style=&quot;font-size: 28px&quot;&gt;&lt;font style=&quot;font-size: 28px&quot;&gt;&lt;b style=&quot;color: rgb(255 , 128 , 0)&quot;&gt;xxxx Event triggered&amp;nbsp;by UFO&lt;/b&gt;&lt;font color=&quot;#ff00ff&quot; style=&quot;font-size: 28px&quot;&gt;&lt;b&gt;&lt;br&gt;&lt;/b&gt;&lt;/font&gt;&lt;/font&gt;&lt;/p&gt;&lt;p style=&quot;font-size: 28px&quot;&gt;&lt;b&gt;&lt;font style=&quot;font-size: 28px&quot;&gt;&lt;font color=&quot;#000099&quot; style=&quot;font-size: 28px&quot;&gt;xxxx Event triggered&amp;nbsp;by Internal&lt;/font&gt;&lt;font color=&quot;#ff00ff&quot; style=&quot;font-size: 28px&quot;&gt;&lt;br&gt;&lt;/font&gt;&lt;/font&gt;&lt;/b&gt;&lt;/p&gt;&lt;p style=&quot;font-size: 28px&quot;&gt;&lt;font color=&quot;#336600&quot; style=&quot;font-size: 28px&quot;&gt;&lt;b&gt;xxxx Msg Rcv From External&lt;/b&gt;&lt;/font&gt;&lt;/p&gt;&lt;p style=&quot;font-size: 28px&quot;&gt;&lt;font color=&quot;#336600&quot; style=&quot;font-size: 28px&quot;&gt;&lt;b&gt;&lt;br&gt;&lt;/b&gt;&lt;/font&gt;&lt;/p&gt;&lt;p style=&quot;font-size: 28px&quot;&gt;&lt;font color=&quot;#336600&quot; style=&quot;font-size: 28px&quot;&gt;&lt;b&gt;&lt;br&gt;&lt;/b&gt;&lt;/font&gt;&lt;/p&gt;&lt;p style=&quot;font-size: 28px&quot;&gt;&lt;font color=&quot;#336600&quot; style=&quot;font-size: 28px&quot;&gt;&lt;b&gt;S1 Step 1 、S2 Step 2&lt;/b&gt;&lt;/font&gt;&lt;/p&gt;&lt;p style=&quot;font-size: 28px&quot;&gt;&lt;font style=&quot;font-size: 28px&quot;&gt;&lt;br&gt;&lt;/font&gt;&lt;/p&gt;&lt;p style=&quot;font-size: 28px&quot;&gt;&lt;font color=&quot;#ff8000&quot; style=&quot;font-size: 28px&quot;&gt;&lt;br&gt;&lt;/font&gt;&lt;/p&gt;&lt;p style=&quot;font-size: 28px&quot;&gt;&lt;font color=&quot;#ff8000&quot; style=&quot;font-size: 28px&quot;&gt;&lt;br&gt;&lt;/font&gt;&lt;/p&gt;&lt;p style=&quot;font-size: 28px&quot;&gt;&lt;br&gt;&lt;/p&gt;" style="text;html=1;strokeColor=none;fillColor=none;spacing=5;spacingTop=-20;whiteSpace=wrap;overflow=hidden;rounded=0;" vertex="1" parent="1">
          <mxGeometry x="1350" y="160" width="661" height="560" as="geometry" />
        </mxCell>
        <mxCell id="Gu_HGvraQtIG8CotYRPx-46" value="&lt;font size=&quot;1&quot;&gt;&lt;b style=&quot;font-size: 28px&quot;&gt;Ofen used channel status&lt;/b&gt;&lt;/font&gt;" style="text;html=1;align=center;verticalAlign=middle;whiteSpace=wrap;rounded=0;strokeWidth=5;fontColor=#51877E;" vertex="1" parent="1">
          <mxGeometry x="1400" y="560" width="400" height="30" as="geometry" />
        </mxCell>
        <mxCell id="Gu_HGvraQtIG8CotYRPx-47" value="" style="ellipse;whiteSpace=wrap;html=1;fillColor=#60a917;strokeColor=#2D7600;strokeWidth=1;fontColor=#ffffff;" vertex="1" parent="1">
          <mxGeometry x="1360" y="560" width="50" height="30" as="geometry" />
        </mxCell>
        <mxCell id="Gu_HGvraQtIG8CotYRPx-48" value="&lt;font size=&quot;1&quot; color=&quot;#66b2ff&quot;&gt;&lt;b style=&quot;font-size: 28px&quot;&gt;Ofen used channel status&lt;/b&gt;&lt;/font&gt;" style="text;html=1;align=center;verticalAlign=middle;whiteSpace=wrap;rounded=0;strokeWidth=5;fontColor=#51877E;" vertex="1" parent="1">
          <mxGeometry x="1400" y="560" width="400" height="30" as="geometry" />
        </mxCell>
        <mxCell id="Gu_HGvraQtIG8CotYRPx-49" value="" style="ellipse;whiteSpace=wrap;html=1;fillColor=#66B2FF;strokeColor=none;strokeWidth=1;fontColor=#ffffff;" vertex="1" parent="1">
          <mxGeometry x="1360" y="560" width="50" height="30" as="geometry" />
        </mxCell>
        <mxCell id="Gu_HGvraQtIG8CotYRPx-55" style="rounded=0;orthogonalLoop=1;jettySize=auto;html=1;fontColor=#66B2FF;" edge="1" parent="1" source="Gu_HGvraQtIG8CotYRPx-53" target="Gu_HGvraQtIG8CotYRPx-5">
          <mxGeometry relative="1" as="geometry" />
        </mxCell>
        <mxCell id="Gu_HGvraQtIG8CotYRPx-58" style="edgeStyle=none;rounded=0;orthogonalLoop=1;jettySize=auto;html=1;fontColor=#66B2FF;" edge="1" parent="1" source="Gu_HGvraQtIG8CotYRPx-53" target="Gu_HGvraQtIG8CotYRPx-59">
          <mxGeometry relative="1" as="geometry">
            <mxPoint x="2040" y="740" as="targetPoint" />
          </mxGeometry>
        </mxCell>
        <mxCell id="Gu_HGvraQtIG8CotYRPx-53" value="&lt;font style=&quot;font-size: 28px&quot;&gt;Calling&lt;/font&gt;" style="ellipse;whiteSpace=wrap;html=1;rounded=1;labelBackgroundColor=none;fontSize=20;fillColor=#66B2FF;gradientColor=none;fontColor=#FFFFFF;fontStyle=1;strokeColor=none;" vertex="1" parent="1">
          <mxGeometry x="2330" y="700" width="240" height="80" as="geometry" />
        </mxCell>
        <mxCell id="Gu_HGvraQtIG8CotYRPx-57" value="&lt;font style=&quot;font-size: 20px;&quot;&gt;H&lt;/font&gt;" style="ellipse;whiteSpace=wrap;html=1;aspect=fixed;rounded=1;labelBackgroundColor=none;fontSize=20;fontColor=#000000;strokeColor=default;fillColor=#FFFFFF;gradientColor=none;" vertex="1" parent="1">
          <mxGeometry x="3290" y="719" width="40" height="40" as="geometry" />
        </mxCell>
        <mxCell id="Gu_HGvraQtIG8CotYRPx-59" value="&lt;font style=&quot;font-size: 20px;&quot;&gt;H&lt;/font&gt;" style="ellipse;whiteSpace=wrap;html=1;aspect=fixed;rounded=1;labelBackgroundColor=none;fontSize=20;fontColor=#000000;strokeColor=default;fillColor=#FFFFFF;gradientColor=none;" vertex="1" parent="1">
          <mxGeometry x="1980" y="719" width="40" height="40" as="geometry" />
        </mxCell>
        <mxCell id="Gu_HGvraQtIG8CotYRPx-60" value="&lt;span style=&quot;font-family: &amp;#34;consolas&amp;#34; , &amp;#34;courier new&amp;#34; , monospace&quot;&gt;HANGUP&lt;/span&gt;&lt;span style=&quot;font-family: &amp;#34;consolas&amp;#34; , &amp;#34;courier new&amp;#34; , monospace&quot;&gt;&lt;br&gt;&lt;/span&gt;&lt;div style=&quot;font-family: &amp;#34;consolas&amp;#34; , &amp;#34;courier new&amp;#34; , monospace ; line-height: 19px ; font-size: 20px&quot;&gt;&lt;font style=&quot;font-size: 20px&quot; color=&quot;#0000ff&quot;&gt;onChannelHangup&lt;/font&gt;&lt;/div&gt;" style="rounded=0;whiteSpace=wrap;html=1;labelBackgroundColor=none;fontSize=20;fontColor=#FF8000;fillColor=#FFFFFF;gradientColor=none;strokeColor=none;" vertex="1" parent="1">
          <mxGeometry x="2050" y="640" width="240" height="80" as="geometry" />
        </mxCell>
        <mxCell id="Gu_HGvraQtIG8CotYRPx-61" value="&lt;span style=&quot;font-family: &amp;#34;consolas&amp;#34; , &amp;#34;courier new&amp;#34; , monospace&quot;&gt;RINGRING&lt;br&gt;&lt;/span&gt;&lt;div style=&quot;font-family: &amp;#34;consolas&amp;#34; , &amp;#34;courier new&amp;#34; , monospace ; line-height: 19px ; font-size: 20px&quot;&gt;&lt;font style=&quot;font-size: 20px&quot; color=&quot;#0000ff&quot;&gt;onChannelCalling&lt;/font&gt;&lt;/div&gt;" style="rounded=0;whiteSpace=wrap;html=1;labelBackgroundColor=none;fontSize=20;fontColor=#FF8000;fillColor=#FFFFFF;gradientColor=none;strokeColor=none;" vertex="1" parent="1">
          <mxGeometry x="2350" y="530" width="240" height="80" as="geometry" />
        </mxCell>
        <mxCell id="Gu_HGvraQtIG8CotYRPx-62" value="&lt;span style=&quot;font-family: &amp;#34;consolas&amp;#34; , &amp;#34;courier new&amp;#34; , monospace&quot;&gt;RINGRING&lt;/span&gt;&lt;span style=&quot;font-family: &amp;#34;consolas&amp;#34; , &amp;#34;courier new&amp;#34; , monospace&quot;&gt;&lt;br&gt;&lt;/span&gt;&lt;div style=&quot;font-family: &amp;#34;consolas&amp;#34; , &amp;#34;courier new&amp;#34; , monospace ; line-height: 19px ; font-size: 20px&quot;&gt;&lt;font style=&quot;font-size: 20px&quot; color=&quot;#0000ff&quot;&gt;onChannelRInging&lt;/font&gt;&lt;/div&gt;" style="rounded=0;whiteSpace=wrap;html=1;labelBackgroundColor=none;fontSize=20;fontColor=#FF8000;fillColor=#FFFFFF;gradientColor=none;strokeColor=none;" vertex="1" parent="1">
          <mxGeometry x="2655" y="520" width="240" height="80" as="geometry" />
        </mxCell>
        <mxCell id="Gu_HGvraQtIG8CotYRPx-64" value="&lt;span style=&quot;font-family: &amp;#34;consolas&amp;#34; , &amp;#34;courier new&amp;#34; , monospace&quot;&gt;ACTIVE&lt;/span&gt;&lt;span style=&quot;font-family: &amp;#34;consolas&amp;#34; , &amp;#34;courier new&amp;#34; , monospace&quot;&gt;&lt;br&gt;&lt;/span&gt;&lt;span style=&quot;color: rgb(0 , 0 , 255) ; font-family: &amp;#34;consolas&amp;#34; , &amp;#34;courier new&amp;#34; , monospace&quot;&gt;onChannel&lt;/span&gt;&lt;span style=&quot;color: rgb(0 , 0 , 255) ; font-family: &amp;#34;consolas&amp;#34; , &amp;#34;courier new&amp;#34; , monospace&quot;&gt;Active&lt;/span&gt;&lt;span style=&quot;color: rgb(0 , 0 , 255) ; font-family: &amp;#34;consolas&amp;#34; , &amp;#34;courier new&amp;#34; , monospace&quot;&gt;&lt;br&gt;&lt;/span&gt;" style="rounded=0;whiteSpace=wrap;html=1;labelBackgroundColor=none;fontSize=20;fontColor=#FF8000;fillColor=#FFFFFF;gradientColor=none;strokeColor=none;" vertex="1" parent="1">
          <mxGeometry x="2340" y="910" width="240" height="80" as="geometry" />
        </mxCell>
        <mxCell id="Gu_HGvraQtIG8CotYRPx-65" value="&lt;span style=&quot;font-family: &amp;#34;consolas&amp;#34; , &amp;#34;courier new&amp;#34; , monospace&quot;&gt;ACTIVE&lt;/span&gt;&lt;span style=&quot;font-family: &amp;#34;consolas&amp;#34; , &amp;#34;courier new&amp;#34; , monospace&quot;&gt;&lt;br&gt;&lt;/span&gt;&lt;span style=&quot;color: rgb(0 , 0 , 255) ; font-family: &amp;#34;consolas&amp;#34; , &amp;#34;courier new&amp;#34; , monospace&quot;&gt;onChannel&lt;/span&gt;&lt;span style=&quot;color: rgb(0 , 0 , 255) ; font-family: &amp;#34;consolas&amp;#34; , &amp;#34;courier new&amp;#34; , monospace&quot;&gt;Active&lt;/span&gt;&lt;span style=&quot;color: rgb(0 , 0 , 255) ; font-family: &amp;#34;consolas&amp;#34; , &amp;#34;courier new&amp;#34; , monospace&quot;&gt;&lt;br&gt;&lt;/span&gt;" style="rounded=0;whiteSpace=wrap;html=1;labelBackgroundColor=none;fontSize=20;fontColor=#FF8000;fillColor=#FFFFFF;gradientColor=none;strokeColor=none;" vertex="1" parent="1">
          <mxGeometry x="2660" y="900" width="240" height="80" as="geometry" />
        </mxCell>
      </root>
    </mxGraphModel>
  </diagram>
</mxfile>
